<svg xml:space="preserve" viewBox="0 0 850.39 368.5" height="368.5px" width="850.39px" y="0px" x="0px" xmlns:xlink="http://www.w3.org/1999/xlink" xmlns="http://www.w3.org/2000/svg" id="图层_1" version="1.1">
<g>
	<path d="M589.175,60.925h0.025c-6.527-3.784-14.411-5.676-23.65-5.675
		c-9.239-0.001-17.122,1.891-23.649,5.675h0.024c-6.046,3.554-9.12,7.813-9.225,12.775c0.098,4.96,3.165,9.202,9.2,12.725
		c0.842,0.482,1.7,0.949,2.574,1.4c0.327,0.177,0.586,0.427,0.775,0.75c0.197,0.315,0.297,0.657,0.3,1.024v7.375l7.65-5.449
		c0.421-0.298,0.888-0.414,1.399-0.351c5.379,0.649,9.029,0.974,10.95,0.976c9.231-0.001,17.106-1.909,23.625-5.726h0.025
		c6.035-3.522,9.102-7.765,9.2-12.725C598.296,68.737,595.221,64.479,589.175,60.925z M540.975,168.8
		c-0.276-0.483-0.343-0.991-0.199-1.524c0.141-0.528,0.449-0.928,0.925-1.2c0.482-0.277,0.991-0.344,1.524-0.2
		c0.527,0.142,0.928,0.45,1.2,0.925l19.75,34.3c0.181,0.313,0.272,0.646,0.275,1c-0.003,0.356-0.095,0.689-0.275,1l-66.149,114.65
		c-0.178,0.307-0.42,0.549-0.726,0.725c-0.312,0.182-0.646,0.273-1,0.275h-87.35c-0.556,0.004-1.031-0.188-1.425-0.575
		c-0.388-0.394-0.579-0.869-0.575-1.425c-0.004-0.556,0.188-1.031,0.575-1.425c0.394-0.388,0.869-0.579,1.425-0.575h86.2l65-112.65
		L540.975,168.8z M537.6,154.975l1.101,1.95c0.269,0.486,0.326,0.995,0.175,1.525s-0.469,0.931-0.95,1.2
		c-0.486,0.269-0.994,0.327-1.524,0.175s-0.93-0.469-1.2-0.95l-1.101-1.95c-0.268-0.486-0.326-0.995-0.175-1.524
		c0.16-0.531,0.485-0.931,0.976-1.2c0.478-0.27,0.978-0.328,1.5-0.175C536.93,154.177,537.33,154.494,537.6,154.975z
		 M538.675,125.475c0.141-0.526,0.449-0.927,0.925-1.199c0.482-0.277,0.99-0.344,1.525-0.2c0.525,0.141,0.926,0.448,1.2,0.925
		l4.1,7.1c0.276,0.482,0.343,0.99,0.2,1.525c-0.141,0.527-0.449,0.927-0.925,1.2c-0.481,0.276-0.99,0.343-1.525,0.2
		c-0.525-0.141-0.926-0.449-1.2-0.926l-4.1-7.1C538.6,126.519,538.532,126.01,538.675,125.475z M322.975,313.65
		c0.512-0.204,1.021-0.196,1.525,0.024c0.51,0.221,0.868,0.588,1.075,1.101l2.25,5.899c0.194,0.511,0.178,1.019-0.05,1.525
		c-0.222,0.502-0.589,0.852-1.101,1.05c-0.511,0.204-1.02,0.195-1.524-0.025c-0.51-0.221-0.868-0.587-1.075-1.1l-2.25-5.9
		c-0.195-0.51-0.179-1.019,0.05-1.524C322.097,314.197,322.464,313.848,322.975,313.65z M326.35,311.675
		c-0.517-0.195-0.892-0.545-1.125-1.05c-0.229-0.502-0.245-1.01-0.05-1.525c0.195-0.517,0.546-0.892,1.05-1.125l5.7-2.649
		c0.502-0.229,1.011-0.245,1.525-0.05c0.518,0.195,0.893,0.545,1.125,1.05c0.229,0.502,0.245,1.01,0.05,1.524
		c-0.195,0.517-0.546,0.892-1.05,1.125l-5.7,2.65C327.373,311.853,326.864,311.869,326.35,311.675z M322.875,298.225
		c0.387,0.395,0.578,0.869,0.575,1.426v4.449c0.003,0.557-0.188,1.031-0.575,1.426c-0.395,0.387-0.869,0.578-1.425,0.574
		c-0.556,0.004-1.031-0.188-1.425-0.574c-0.388-0.395-0.579-0.869-0.575-1.426v-4.449c-0.004-0.557,0.188-1.031,0.575-1.426
		c0.394-0.387,0.869-0.578,1.425-0.574C322.006,297.646,322.48,297.838,322.875,298.225z M316.35,312.8
		c0.439-0.328,0.931-0.453,1.476-0.375c0.546,0.075,0.988,0.334,1.325,0.775c0.329,0.438,0.454,0.931,0.375,1.475
		c-0.076,0.545-0.334,0.987-0.775,1.325l-7.1,5.4c-0.439,0.328-0.931,0.453-1.476,0.375c-0.546-0.076-0.988-0.334-1.325-0.775
		c-0.329-0.439-0.454-0.931-0.375-1.475c0.076-0.546,0.334-0.987,0.775-1.325L316.35,312.8z M307.975,306.025
		c-0.187-0.519-0.161-1.026,0.075-1.525c0.235-0.498,0.61-0.84,1.125-1.025c0.517-0.187,1.024-0.161,1.525,0.075l6.149,2.95
		c0.497,0.235,0.839,0.61,1.025,1.125c0.187,0.518,0.162,1.026-0.075,1.525c-0.234,0.498-0.609,0.84-1.125,1.024
		c-0.516,0.187-1.024,0.162-1.524-0.075L309,307.15C308.503,306.915,308.161,306.54,307.975,306.025z M304.325,269.375
		c0.525,0.141,0.926,0.449,1.2,0.925l4.1,7.101c0.275,0.481,0.343,0.989,0.2,1.524c-0.141,0.527-0.449,0.927-0.925,1.2
		c-0.482,0.276-0.99,0.344-1.525,0.2c-0.525-0.141-0.926-0.449-1.2-0.925l-4.1-7.101c-0.276-0.481-0.343-0.99-0.2-1.524
		c0.141-0.527,0.449-0.928,0.925-1.2C303.282,269.298,303.79,269.231,304.325,269.375z M312.075,244.575
		c0.525,0.141,0.926,0.449,1.2,0.925l1.1,1.95c0.276,0.481,0.343,0.99,0.2,1.524c-0.141,0.527-0.449,0.927-0.925,1.2
		c-0.482,0.277-0.99,0.344-1.525,0.2c-0.526-0.141-0.926-0.449-1.2-0.925l-1.1-1.95c-0.276-0.482-0.343-0.99-0.2-1.525
		c0.141-0.526,0.449-0.927,0.925-1.199C311.031,244.498,311.54,244.432,312.075,244.575z M240.9,276.05l6.1,10.5h12.15l6.1-10.5
		l-6.1-10.55H247L240.9,276.05z M225.475,245.675c-0.394,0.387-0.869,0.579-1.425,0.575h-6.8v6.8
		c0.004,0.556-0.188,1.031-0.575,1.425c-0.394,0.387-0.869,0.579-1.425,0.575c-0.556,0.004-1.031-0.188-1.425-0.575
		c-0.387-0.394-0.579-0.869-0.575-1.425v-6.8h-6.8c-0.556,0.004-1.031-0.188-1.425-0.575c-0.388-0.394-0.579-0.869-0.575-1.425
		c-0.004-0.556,0.188-1.031,0.575-1.425c0.394-0.388,0.869-0.579,1.425-0.575h6.8v-6.8c-0.004-0.557,0.188-1.031,0.575-1.425
		c0.394-0.388,0.869-0.579,1.425-0.575c0.556-0.004,1.031,0.188,1.425,0.575c0.387,0.394,0.579,0.868,0.575,1.425v6.8h6.8
		c0.556-0.004,1.031,0.188,1.425,0.575c0.387,0.394,0.579,0.869,0.575,1.425C226.054,244.806,225.861,245.281,225.475,245.675z
		 M246.775,219.875c-0.395,0.387-0.869,0.578-1.426,0.575H224.6c-0.556,0.003-1.03-0.188-1.425-0.575
		c-0.387-0.395-0.578-0.869-0.575-1.425c-0.003-0.557,0.188-1.031,0.575-1.425c0.395-0.388,0.869-0.579,1.425-0.575h20.75
		c0.557-0.004,1.031,0.188,1.426,0.575c0.387,0.394,0.578,0.868,0.574,1.425C247.354,219.006,247.162,219.48,246.775,219.875z
		 M297.075,262.475c-0.526-0.141-0.927-0.449-1.2-0.925l-10.6-18.3c-0.276-0.482-0.343-0.99-0.2-1.525
		c0.141-0.526,0.448-0.927,0.925-1.199c0.481-0.277,0.99-0.344,1.525-0.2c0.525,0.141,0.926,0.449,1.199,0.925l10.601,18.3
		c0.275,0.482,0.343,0.99,0.2,1.525c-0.141,0.526-0.449,0.927-0.926,1.2C298.118,262.552,297.61,262.618,297.075,262.475z
		 M261.3,261.775c0.306,0.177,0.548,0.418,0.726,0.725l7.25,12.55c0.181,0.311,0.272,0.645,0.274,1
		c-0.002,0.354-0.093,0.688-0.274,1l-7.25,12.5c-0.177,0.306-0.418,0.548-0.726,0.726c-0.31,0.182-0.643,0.272-1,0.274h-14.45
		c-0.356-0.002-0.69-0.093-1-0.274c-0.308-0.178-0.549-0.42-0.725-0.726l-7.25-12.5c-0.182-0.312-0.273-0.646-0.275-1
		c0.002-0.354,0.094-0.688,0.275-1l7.25-12.55c0.177-0.305,0.418-0.547,0.725-0.725c0.313-0.182,0.646-0.273,1-0.275h14.45
		C260.654,261.502,260.988,261.594,261.3,261.775z M270.5,154.8c-0.002,0.355-0.094,0.688-0.275,1l-15.05,26.05
		c-0.176,0.307-0.418,0.548-0.725,0.726c-0.31,0.182-0.643,0.273-1,0.274h-21c-0.556,0.004-1.031-0.188-1.425-0.574
		c-0.388-0.395-0.579-0.869-0.575-1.426c-0.004-0.556,0.188-1.03,0.575-1.425c0.394-0.387,0.869-0.578,1.425-0.575h19.85l13.9-24.05
		l-3.575-6.2c-0.275-0.473-0.343-0.973-0.2-1.5c0.141-0.534,0.448-0.942,0.925-1.225c0.473-0.276,0.973-0.344,1.5-0.2
		c0.534,0.14,0.942,0.448,1.226,0.925l4.149,7.2C270.407,154.112,270.499,154.445,270.5,154.8z M260.775,138.575
		c-0.142,0.527-0.449,0.928-0.926,1.2c-0.482,0.276-0.99,0.343-1.524,0.199c-0.527-0.142-0.928-0.45-1.2-0.925l-4.825-8.35h-27.85
		l-13.9,24.1l7.775,13.45c0.276,0.484,0.343,0.992,0.2,1.525c-0.142,0.527-0.449,0.927-0.926,1.199
		c-0.482,0.277-0.99,0.344-1.524,0.2c-0.527-0.143-0.928-0.451-1.2-0.925l-8.35-14.45c-0.183-0.312-0.273-0.646-0.275-1
		c0.002-0.356,0.094-0.689,0.275-1l15.05-26.1c0.178-0.307,0.419-0.549,0.725-0.726c0.312-0.181,0.646-0.272,1-0.274h30.15
		c0.357,0.001,0.69,0.093,1,0.274c0.307,0.178,0.549,0.419,0.725,0.726l5.4,9.35C260.852,137.533,260.918,138.042,260.775,138.575z
		 M289.125,98.975c0.526,0.141,0.926,0.449,1.2,0.926l2.55,4.5c0.275,0.481,0.343,0.989,0.2,1.524
		c-0.141,0.527-0.449,0.927-0.925,1.2c-0.482,0.276-0.99,0.344-1.525,0.2c-0.526-0.141-0.926-0.449-1.2-0.925l-2.55-4.5
		c-0.276-0.482-0.343-0.99-0.2-1.525c0.141-0.527,0.449-0.927,0.925-1.2C288.082,98.898,288.59,98.831,289.125,98.975z
		 M284.625,90.05c0.276,0.484,0.344,0.992,0.2,1.525c-0.141,0.527-0.449,0.927-0.925,1.2c-0.482,0.276-0.991,0.343-1.525,0.199
		c-0.527-0.143-0.928-0.451-1.2-0.925L269.575,72c-0.277-0.484-0.344-0.992-0.2-1.525c0.141-0.527,0.449-0.927,0.925-1.199
		c0.482-0.277,0.991-0.344,1.525-0.2c0.527,0.143,0.928,0.451,1.2,0.925L284.625,90.05z M486.1,89.65h-5.05
		c-0.556,0.003-1.03-0.188-1.425-0.575c-0.387-0.395-0.578-0.869-0.575-1.425c-0.003-0.557,0.188-1.031,0.575-1.426
		c0.395-0.387,0.869-0.578,1.425-0.574h5.05c0.557-0.004,1.031,0.188,1.426,0.574c0.387,0.395,0.578,0.869,0.574,1.426
		c0.004,0.556-0.188,1.03-0.574,1.425C487.131,89.462,486.656,89.653,486.1,89.65z M473,52.75c-0.552-0.045-1.01-0.278-1.375-0.7
		l-2.95-3.5c-0.358-0.42-0.517-0.903-0.475-1.45c0.044-0.552,0.278-1.011,0.7-1.375c0.419-0.359,0.902-0.518,1.449-0.475
		c0.552,0.045,1.01,0.278,1.375,0.7l2.95,3.5c0.359,0.419,0.518,0.902,0.476,1.45c-0.045,0.552-0.278,1.011-0.7,1.375
		C474.031,52.635,473.548,52.793,473,52.75z M477.325,39.625c0.478,0.284,0.786,0.692,0.925,1.225
		c0.135,0.538,0.06,1.047-0.225,1.525c-0.292,0.478-0.708,0.785-1.25,0.925l-3.15,0.851c-0.529,0.134-1.029,0.059-1.5-0.226
		c-0.479-0.283-0.786-0.692-0.925-1.225c-0.135-0.538-0.06-1.047,0.225-1.525c0.292-0.478,0.708-0.785,1.25-0.925l3.15-0.85
		C476.354,39.266,476.854,39.341,477.325,39.625z M470.275,40.75c-0.449,0.315-0.94,0.424-1.476,0.325
		c-0.547-0.106-0.979-0.39-1.3-0.851c-0.315-0.448-0.424-0.939-0.325-1.475l0.9-4.9c0.106-0.546,0.39-0.979,0.85-1.3
		c0.448-0.315,0.94-0.424,1.476-0.325c0.546,0.106,0.979,0.39,1.3,0.851c0.315,0.448,0.423,0.94,0.325,1.475l-0.9,4.9
		C471.019,39.996,470.735,40.43,470.275,40.75z M539.875,57.475h0.025c7.072-4.148,15.622-6.224,25.649-6.225
		c10.027,0.001,18.577,2.076,25.65,6.225h0.024c7.556,4.447,11.28,9.855,11.176,16.226c0.099,6.372-3.635,11.764-11.2,16.175h0.024
		c-7.08,4.184-15.639,6.275-25.675,6.275c-1.918,0.001-5.476-0.308-10.675-0.926l-10.175,7.25c-0.413,0.293-0.872,0.41-1.375,0.351
		c-0.509-0.056-0.934-0.272-1.275-0.65c-0.337-0.378-0.503-0.82-0.5-1.325V90.8c-0.556-0.301-1.106-0.609-1.649-0.925
		c-7.566-4.411-11.299-9.803-11.2-16.175C528.595,67.33,532.32,61.922,539.875,57.475z M441.55,87.65
		c0.004,0.556-0.188,1.03-0.575,1.425c-0.394,0.387-0.869,0.578-1.425,0.575h-86.2l-65,112.649l19.176,33.3
		c0.276,0.484,0.343,0.993,0.199,1.525c-0.141,0.527-0.449,0.928-0.925,1.2c-0.482,0.276-0.99,0.344-1.524,0.2
		c-0.528-0.144-0.928-0.451-1.2-0.926l-19.75-34.3c-0.181-0.311-0.271-0.644-0.275-1c0.003-0.354,0.095-0.688,0.275-1L350.475,86.65
		c0.177-0.306,0.418-0.548,0.726-0.726c0.31-0.182,0.643-0.273,1-0.274h87.35c0.556-0.004,1.031,0.188,1.425,0.574
		C441.361,86.619,441.554,87.094,441.55,87.65z M448.475,86.225c0.395-0.387,0.869-0.578,1.426-0.574h16.149
		c0.556-0.004,1.031,0.188,1.425,0.574c0.387,0.395,0.579,0.869,0.575,1.426c0.004,0.556-0.188,1.03-0.575,1.425
		c-0.394,0.387-0.869,0.578-1.425,0.575H449.9c-0.557,0.003-1.031-0.188-1.426-0.575c-0.387-0.395-0.578-0.869-0.574-1.425
		C447.896,87.094,448.088,86.619,448.475,86.225z M452.05,68.5c-0.003-0.556,0.188-1.031,0.575-1.425
		c0.395-0.388,0.869-0.579,1.425-0.575H464.4c0.556-0.004,1.03,0.188,1.425,0.575c0.387,0.394,0.578,0.869,0.575,1.425
		c0.003,0.556-0.188,1.031-0.575,1.425c-0.395,0.387-0.869,0.579-1.425,0.575H454.05c-0.556,0.004-1.03-0.188-1.425-0.575
		C452.238,69.531,452.047,69.056,452.05,68.5z M403.625,69.925c-0.395,0.387-0.869,0.579-1.425,0.575h-59.95L266.2,202.3
		l16.024,27.7c0.276,0.481,0.343,0.99,0.2,1.525c-0.141,0.526-0.448,0.927-0.925,1.199c-0.481,0.277-0.99,0.344-1.525,0.2
		c-0.525-0.141-0.926-0.449-1.199-0.925l-16-27.7H151.9c-0.557,0.004-1.031-0.188-1.426-0.575c-0.387-0.394-0.578-0.869-0.574-1.425
		c-0.004-0.556,0.188-1.031,0.574-1.425c0.395-0.387,0.869-0.579,1.426-0.575h110.875l76.6-132.8
		c0.176-0.306,0.417-0.547,0.725-0.725c0.31-0.182,0.644-0.273,1-0.275H402.2c0.556-0.004,1.03,0.188,1.425,0.575
		c0.387,0.394,0.578,0.869,0.575,1.425C404.203,69.056,404.012,69.531,403.625,69.925z M416.35,68.5
		c-0.003-0.556,0.188-1.031,0.575-1.425c0.395-0.388,0.869-0.579,1.425-0.575h25.301c0.556-0.004,1.03,0.188,1.425,0.575
		c0.387,0.394,0.578,0.869,0.575,1.425c0.003,0.556-0.188,1.031-0.575,1.425c-0.395,0.387-0.869,0.579-1.425,0.575H418.35
		c-0.556,0.004-1.03-0.188-1.425-0.575C416.538,69.531,416.347,69.056,416.35,68.5z M380.25,41.05
		c0.004,0.556-0.188,1.031-0.575,1.425c-0.394,0.387-0.869,0.579-1.425,0.575h-6.8v6.8c0.003,0.557-0.188,1.031-0.575,1.426
		c-0.395,0.387-0.869,0.578-1.425,0.574c-0.556,0.004-1.031-0.188-1.425-0.574c-0.388-0.395-0.579-0.869-0.575-1.426v-6.8h-6.8
		c-0.557,0.004-1.031-0.188-1.426-0.575c-0.387-0.394-0.578-0.869-0.574-1.425c-0.004-0.556,0.188-1.031,0.574-1.425
		c0.395-0.387,0.869-0.579,1.426-0.575h6.8v-6.8c-0.004-0.556,0.188-1.031,0.575-1.425c0.394-0.387,0.869-0.579,1.425-0.575
		c0.556-0.004,1.03,0.188,1.425,0.575c0.387,0.394,0.578,0.869,0.575,1.425v6.8h6.8c0.556-0.004,1.031,0.188,1.425,0.575
		C380.062,40.019,380.254,40.494,380.25,41.05z M458.375,36.125c0.338-0.434,0.779-0.684,1.325-0.75
		c0.545-0.07,1.036,0.063,1.475,0.4l5.2,4c0.433,0.338,0.683,0.78,0.75,1.324c0.071,0.546-0.063,1.037-0.4,1.476
		c-0.338,0.434-0.779,0.684-1.324,0.75c-0.545,0.07-1.037-0.063-1.476-0.4l-5.2-4c-0.433-0.339-0.683-0.78-0.75-1.325
		C457.904,37.055,458.037,36.563,458.375,36.125z M460.15,49.85c-0.33-0.439-0.455-0.931-0.375-1.475
		c0.076-0.547,0.335-0.988,0.774-1.325l3.75-2.75c0.44-0.329,0.933-0.454,1.476-0.375c0.547,0.076,0.988,0.334,1.324,0.775
		c0.33,0.439,0.455,0.931,0.375,1.475c-0.076,0.547-0.335,0.988-0.774,1.325l-3.75,2.75c-0.44,0.329-0.933,0.454-1.476,0.375
		C460.928,50.549,460.486,50.291,460.15,49.85z M575.95,74c0-0.934,0.333-1.783,1-2.55c0.733-0.667,1.583-1,2.55-1
		c1,0,1.833,0.333,2.5,1c0.7,0.767,1.05,1.616,1.05,2.55c0,1-0.35,1.833-1.05,2.5c-0.667,0.7-1.5,1.05-2.5,1.05
		c-0.967,0-1.816-0.35-2.55-1.05C576.283,75.833,575.95,75,575.95,74z M568.5,71.45c0.7,0.767,1.05,1.616,1.05,2.55
		c0,1-0.35,1.833-1.05,2.5c-0.667,0.7-1.5,1.05-2.5,1.05c-0.967,0-1.816-0.35-2.55-1.05c-0.667-0.667-1-1.5-1-2.5
		c0-0.934,0.333-1.783,1-2.55c0.733-0.667,1.583-1,2.55-1C567,70.45,567.833,70.783,568.5,71.45z M555,76.5
		c-0.667,0.7-1.5,1.05-2.5,1.05c-0.967,0-1.816-0.35-2.55-1.05c-0.667-0.667-1-1.5-1-2.5c0-0.934,0.333-1.783,1-2.55
		c0.733-0.667,1.583-1,2.55-1c1,0,1.833,0.333,2.5,1c0.7,0.767,1.05,1.616,1.05,2.55C556.05,75,555.7,75.833,555,76.5z
		 M680.775,222.625c0.394-0.387,0.869-0.579,1.425-0.575H748.6c0.557-0.004,1.031,0.188,1.426,0.575
		c0.387,0.394,0.578,0.869,0.574,1.425c0.004,0.556-0.188,1.031-0.574,1.425c-0.395,0.387-0.869,0.579-1.426,0.575H682.2
		c-0.556,0.004-1.031-0.188-1.425-0.575c-0.388-0.394-0.579-0.869-0.575-1.425C680.196,223.494,680.388,223.019,680.775,222.625z
		 M669.775,225.475c-0.395,0.387-0.869,0.579-1.426,0.575h-19.6c-0.556,0.004-1.031-0.188-1.425-0.575
		c-0.388-0.394-0.579-0.869-0.575-1.425c-0.004-0.556,0.188-1.031,0.575-1.425c0.394-0.387,0.869-0.579,1.425-0.575h19.6
		c0.557-0.004,1.031,0.188,1.426,0.575c0.387,0.394,0.578,0.869,0.574,1.425C670.354,224.605,670.162,225.081,669.775,225.475z
		 M590.75,268.375c0.481-0.277,0.99-0.344,1.525-0.2c0.525,0.141,0.926,0.449,1.199,0.925l2.726,4.65h27.85l4.075-7.075
		c0.282-0.467,0.691-0.767,1.225-0.899c0.528-0.144,1.028-0.077,1.5,0.199c0.478,0.282,0.785,0.691,0.926,1.226
		c0.143,0.534,0.076,1.043-0.2,1.524l-4.65,8.051c-0.179,0.297-0.42,0.53-0.725,0.699c-0.312,0.18-0.645,0.271-1,0.275h-30.15
		c-0.354-0.003-0.688-0.094-1-0.275c-0.306-0.177-0.548-0.418-0.725-0.725l-3.3-5.65c-0.276-0.481-0.343-0.99-0.2-1.524
		C589.965,269.048,590.273,268.648,590.75,268.375z M562.075,313.8c-0.152-0.532-0.094-1.041,0.175-1.524
		c0.271-0.483,0.671-0.8,1.2-0.95c0.53-0.152,1.039-0.094,1.524,0.175l4.551,2.55c0.48,0.271,0.797,0.671,0.949,1.2
		c0.152,0.532,0.094,1.041-0.175,1.525c-0.271,0.482-0.671,0.799-1.2,0.949c-0.53,0.152-1.039,0.094-1.524-0.175l-4.55-2.55
		C562.544,314.729,562.227,314.329,562.075,313.8z M567.9,301.45c0.552,0.044,1.011,0.277,1.375,0.7
		c0.359,0.419,0.518,0.902,0.475,1.449c-0.045,0.552-0.278,1.01-0.7,1.375l-3.45,3c-0.419,0.359-0.902,0.518-1.449,0.476
		c-0.553-0.045-1.012-0.278-1.375-0.7c-0.36-0.419-0.519-0.902-0.476-1.45c0.046-0.552,0.278-1.01,0.7-1.375l3.45-3
		C566.869,301.566,567.354,301.408,567.9,301.45z M557.8,311.825c0.27,0.485,0.327,0.993,0.175,1.524
		c-0.152,0.529-0.469,0.93-0.949,1.2l-5.25,2.851c-0.486,0.269-0.995,0.326-1.525,0.175c-0.529-0.151-0.93-0.468-1.2-0.95
		c-0.269-0.485-0.327-0.993-0.175-1.525c0.152-0.529,0.469-0.929,0.95-1.199l5.25-2.851c0.486-0.269,0.994-0.327,1.524-0.175
		C557.13,311.026,557.529,311.343,557.8,311.825z M552.975,299.225c0.421-0.36,0.904-0.519,1.45-0.475
		c0.545,0.046,0.995,0.279,1.351,0.7l3.25,3.8c0.359,0.43,0.518,0.921,0.475,1.475c-0.054,0.546-0.295,0.996-0.725,1.351
		c-0.421,0.36-0.904,0.519-1.45,0.475c-0.545-0.046-0.995-0.279-1.351-0.7l-3.25-3.8c-0.359-0.43-0.518-0.921-0.475-1.475
		C552.304,300.029,552.545,299.579,552.975,299.225z M617.3,221.6c0.556-0.003,1.031,0.188,1.425,0.575
		c0.387,0.395,0.579,0.869,0.575,1.425c0.004,0.557-0.188,1.031-0.575,1.426c-0.394,0.387-0.869,0.578-1.425,0.574h-21.1
		L582.3,249.7l2.875,5c0.276,0.473,0.343,0.973,0.2,1.5c-0.14,0.534-0.448,0.942-0.925,1.225c-0.473,0.276-0.973,0.344-1.5,0.2
		c-0.534-0.14-0.942-0.448-1.226-0.925l-3.449-6c-0.183-0.313-0.273-0.646-0.275-1c0.002-0.355,0.094-0.688,0.275-1l15.05-26.101
		c0.176-0.306,0.417-0.548,0.725-0.725c0.31-0.182,0.643-0.273,1-0.275H617.3z M568.525,171.475
		c0.525,0.141,0.926,0.449,1.199,0.926L585.75,200.1h119.5c0.556-0.003,1.031,0.188,1.425,0.575
		c0.387,0.395,0.579,0.869,0.575,1.425c0.004,0.557-0.188,1.031-0.575,1.426c-0.394,0.387-0.869,0.578-1.425,0.574h-119.5
		L509.125,336.9c-0.176,0.305-0.418,0.547-0.725,0.725c-0.31,0.182-0.643,0.273-1,0.275H458.3c-0.556,0.003-1.03-0.188-1.425-0.575
		c-0.387-0.395-0.578-0.869-0.575-1.425c-0.003-0.557,0.188-1.031,0.575-1.426c0.395-0.387,0.869-0.578,1.425-0.574h47.95
		L582.3,202.1L566.275,174.4c-0.276-0.482-0.343-0.991-0.2-1.525c0.141-0.527,0.448-0.927,0.925-1.2
		C567.481,171.398,567.99,171.331,568.525,171.475z M559.775,163.15l-10.601-18.301c-0.276-0.481-0.343-0.99-0.2-1.524
		c0.141-0.527,0.449-0.927,0.926-1.2c0.481-0.277,0.989-0.344,1.524-0.2c0.526,0.142,0.927,0.449,1.2,0.925l10.6,18.301
		c0.276,0.481,0.343,0.99,0.2,1.524c-0.141,0.527-0.448,0.927-0.925,1.2c-0.481,0.276-0.99,0.344-1.525,0.2
		C560.449,163.934,560.049,163.625,559.775,163.15z M589.35,129.35l-6.1,10.551l6.1,10.5h12.15l6.1-10.5l-6.1-10.551H589.35z
		 M602.65,125.35c0.354,0.003,0.688,0.095,1,0.275c0.306,0.177,0.547,0.419,0.725,0.725l7.25,12.551
		c0.182,0.311,0.272,0.644,0.275,1c-0.002,0.354-0.094,0.688-0.275,1l-7.25,12.5c-0.176,0.306-0.418,0.547-0.725,0.725
		c-0.31,0.182-0.643,0.273-1,0.275H588.2c-0.357-0.002-0.69-0.094-1-0.275c-0.308-0.178-0.55-0.419-0.726-0.725l-7.25-12.5
		c-0.182-0.313-0.273-0.646-0.274-1c0.001-0.355,0.093-0.688,0.274-1l7.25-12.551c0.177-0.305,0.419-0.546,0.726-0.725
		c0.312-0.181,0.646-0.272,1-0.275H602.65z M633.975,184.525c0.395-0.388,0.869-0.579,1.426-0.575h158.75
		c0.556-0.004,1.03,0.188,1.425,0.575c0.387,0.394,0.578,0.868,0.575,1.425c0.003,0.556-0.188,1.03-0.575,1.425
		c-0.395,0.387-0.869,0.578-1.425,0.575H635.4c-0.557,0.003-1.031-0.188-1.426-0.575c-0.387-0.395-0.578-0.869-0.574-1.425
		C633.396,185.394,633.588,184.919,633.975,184.525z M625.325,187.375c-0.395,0.387-0.869,0.578-1.425,0.575h-20.75
		c-0.557,0.003-1.031-0.188-1.426-0.575c-0.387-0.395-0.578-0.869-0.574-1.425c-0.004-0.557,0.188-1.031,0.574-1.425
		c0.395-0.388,0.869-0.579,1.426-0.575h20.75c0.556-0.004,1.03,0.188,1.425,0.575c0.387,0.394,0.578,0.868,0.575,1.425
		C625.903,186.506,625.712,186.98,625.325,187.375z M639.925,105.575c-0.387-0.395-0.578-0.869-0.575-1.425
		c-0.003-0.557,0.188-1.031,0.575-1.426c0.395-0.387,0.869-0.578,1.425-0.574h6.801V95.35c-0.004-0.556,0.188-1.03,0.574-1.425
		c0.395-0.387,0.869-0.578,1.426-0.575c0.556-0.003,1.03,0.188,1.425,0.575c0.387,0.395,0.578,0.869,0.575,1.425v6.801h6.8
		c0.556-0.004,1.03,0.188,1.425,0.574c0.387,0.395,0.578,0.869,0.575,1.426c0.003,0.556-0.188,1.03-0.575,1.425
		c-0.395,0.387-0.869,0.578-1.425,0.575h-6.8v6.8c0.003,0.556-0.188,1.03-0.575,1.425c-0.395,0.387-0.869,0.578-1.425,0.575
		c-0.557,0.003-1.031-0.188-1.426-0.575c-0.387-0.395-0.578-0.869-0.574-1.425v-6.8h-6.801
		C640.794,106.153,640.319,105.962,639.925,105.575z M644.05,224.85c0.033,0.134-0.2,0.2-0.7,0.2c-0.3,0-0.482-0.033-0.55-0.1
		c0-0.101-0.033-0.184-0.1-0.25c-0.067,0.2-0.101,0.05-0.101-0.45c0-0.3,0.084-0.5,0.25-0.6c0.101-0.034,0.268-0.067,0.5-0.101
		c0.268,0.101,0.518,0.3,0.75,0.601L644.05,224.85z M362.4,314.75h5.05c0.556-0.004,1.03,0.188,1.425,0.575
		c0.387,0.394,0.578,0.869,0.575,1.425c0.003,0.556-0.188,1.031-0.575,1.425c-0.395,0.387-0.869,0.579-1.425,0.575h-5.05
		c-0.557,0.004-1.031-0.188-1.426-0.575c-0.387-0.394-0.578-0.869-0.574-1.425c-0.004-0.556,0.188-1.031,0.574-1.425
		C361.369,314.938,361.844,314.746,362.4,314.75z M382.675,334.475c0.395-0.387,0.869-0.578,1.425-0.574h10.351
		c0.556-0.004,1.03,0.188,1.425,0.574c0.387,0.395,0.578,0.869,0.575,1.426c0.003,0.556-0.188,1.03-0.575,1.425
		c-0.395,0.387-0.869,0.578-1.425,0.575H384.1c-0.556,0.003-1.03-0.188-1.425-0.575c-0.387-0.395-0.578-0.869-0.575-1.425
		C382.097,335.344,382.288,334.869,382.675,334.475z M400.6,316.75c0.004,0.556-0.188,1.031-0.574,1.425
		c-0.395,0.387-0.869,0.579-1.426,0.575H382.45c-0.556,0.004-1.031-0.188-1.425-0.575c-0.388-0.394-0.579-0.869-0.575-1.425
		c-0.004-0.556,0.188-1.031,0.575-1.425c0.394-0.388,0.869-0.579,1.425-0.575H398.6c0.557-0.004,1.031,0.188,1.426,0.575
		C400.412,315.719,400.604,316.194,400.6,316.75z M443.575,337.325c-0.395,0.387-0.869,0.578-1.425,0.575H407.55
		c-0.556,0.003-1.03-0.188-1.425-0.575c-0.387-0.395-0.579-0.869-0.575-1.425c-0.004-0.557,0.188-1.031,0.575-1.426
		c0.395-0.387,0.869-0.578,1.425-0.574h34.601c0.556-0.004,1.03,0.188,1.425,0.574c0.387,0.395,0.578,0.869,0.575,1.426
		C444.153,336.456,443.962,336.931,443.575,337.325z M94.9,202.3c-0.004-0.556,0.188-1.031,0.574-1.425
		c0.395-0.387,0.869-0.579,1.426-0.575h17.3c0.556-0.004,1.03,0.188,1.425,0.575c0.387,0.394,0.578,0.869,0.575,1.425
		c0.003,0.556-0.188,1.031-0.575,1.425c-0.395,0.387-0.869,0.579-1.425,0.575H96.9c-0.557,0.004-1.031-0.188-1.426-0.575
		C95.088,203.331,94.896,202.855,94.9,202.3z M82.2,180.35c-0.004-0.556,0.188-1.03,0.575-1.425
		c0.394-0.387,0.869-0.578,1.425-0.575H98c0.556-0.003,1.031,0.188,1.425,0.575c0.387,0.395,0.579,0.869,0.575,1.425
		c0.004,0.557-0.188,1.031-0.575,1.426c-0.394,0.387-0.869,0.578-1.425,0.574H84.2c-0.556,0.004-1.031-0.188-1.425-0.574
		C82.388,181.381,82.196,180.906,82.2,180.35z M76.95,180.35c0.003,0.557-0.188,1.031-0.575,1.426
		c-0.395,0.387-0.869,0.578-1.425,0.574H66.9c-0.557,0.004-1.031-0.188-1.426-0.574c-0.387-0.395-0.578-0.869-0.574-1.426
		c-0.004-0.556,0.188-1.03,0.574-1.425c0.395-0.387,0.869-0.578,1.426-0.575h8.05c0.556-0.003,1.03,0.188,1.425,0.575
		C76.762,179.319,76.953,179.794,76.95,180.35z M201.175,181.775c-0.394,0.387-0.869,0.578-1.425,0.574h-19.6
		c-0.557,0.004-1.031-0.188-1.426-0.574c-0.387-0.395-0.578-0.869-0.574-1.426c-0.004-0.556,0.188-1.03,0.574-1.425
		c0.395-0.387,0.869-0.578,1.426-0.575h19.6c0.556-0.003,1.031,0.188,1.425,0.575c0.387,0.395,0.579,0.869,0.575,1.425
		C201.754,180.906,201.562,181.381,201.175,181.775z M141.675,203.725c-0.394,0.387-0.869,0.579-1.425,0.575h-18.4
		c-0.556,0.004-1.03-0.188-1.425-0.575c-0.387-0.394-0.578-0.869-0.575-1.425c-0.003-0.556,0.188-1.031,0.575-1.425
		c0.395-0.387,0.869-0.579,1.425-0.575h18.4c0.556-0.004,1.031,0.188,1.425,0.575c0.387,0.394,0.579,0.869,0.575,1.425
		C142.254,202.855,142.062,203.331,141.675,203.725z M167.725,181.775c-0.394,0.387-0.869,0.578-1.425,0.574H111.9
		c-0.557,0.004-1.031-0.188-1.426-0.574c-0.387-0.395-0.578-0.869-0.574-1.426c-0.004-0.556,0.188-1.03,0.574-1.425
		c0.395-0.387,0.869-0.578,1.426-0.575H166.3c0.556-0.003,1.031,0.188,1.425,0.575c0.387,0.395,0.579,0.869,0.575,1.425
		C168.304,180.906,168.111,181.381,167.725,181.775z M19.975,219.875c-0.394,0.387-0.869,0.578-1.425,0.575h-9.2
		c-0.556,0.003-1.03-0.188-1.425-0.575c-0.387-0.395-0.578-0.869-0.575-1.425c-0.003-0.557,0.188-1.031,0.575-1.425
		c0.395-0.388,0.869-0.579,1.425-0.575h9.2c0.556-0.004,1.031,0.188,1.425,0.575c0.387,0.394,0.579,0.868,0.575,1.425
		C20.554,219.006,20.361,219.48,19.975,219.875z M42.8,220.45H26.65c-0.557,0.003-1.031-0.188-1.426-0.575
		c-0.387-0.395-0.578-0.869-0.574-1.425c-0.004-0.557,0.188-1.031,0.574-1.425c0.395-0.388,0.869-0.579,1.426-0.575H42.8
		c0.556-0.004,1.031,0.188,1.425,0.575c0.387,0.394,0.579,0.868,0.575,1.425c0.004,0.556-0.188,1.03-0.575,1.425
		C43.831,220.262,43.355,220.453,42.8,220.45z M52.35,218.45c-0.003-0.557,0.188-1.031,0.575-1.425
		c0.395-0.388,0.869-0.579,1.425-0.575H213.1c0.557-0.004,1.031,0.188,1.426,0.575c0.387,0.394,0.578,0.868,0.574,1.425
		c0.004,0.556-0.188,1.03-0.574,1.425c-0.395,0.387-0.869,0.578-1.426,0.575H54.35c-0.556,0.003-1.03-0.188-1.425-0.575
		C52.538,219.48,52.347,219.006,52.35,218.45z M784.125,225.475c-0.387-0.394-0.578-0.869-0.575-1.425
		c-0.003-0.556,0.188-1.031,0.575-1.425c0.395-0.387,0.869-0.579,1.425-0.575h8.05c0.557-0.004,1.031,0.188,1.426,0.575
		c0.387,0.394,0.578,0.869,0.574,1.425c0.004,0.556-0.188,1.031-0.574,1.425c-0.395,0.387-0.869,0.579-1.426,0.575h-8.05
		C784.994,226.054,784.52,225.861,784.125,225.475z M776.3,222.05c0.556-0.004,1.031,0.188,1.425,0.575
		c0.387,0.394,0.579,0.869,0.575,1.425c0.004,0.556-0.188,1.031-0.575,1.425c-0.394,0.387-0.869,0.579-1.425,0.575h-13.8
		c-0.556,0.004-1.031-0.188-1.425-0.575c-0.388-0.394-0.579-0.869-0.575-1.425c-0.004-0.556,0.188-1.031,0.575-1.425
		c0.394-0.387,0.869-0.579,1.425-0.575H776.3z M746.3,204.1c-0.556,0.004-1.03-0.188-1.425-0.574
		c-0.387-0.395-0.578-0.869-0.575-1.426c-0.003-0.556,0.188-1.03,0.575-1.425c0.395-0.387,0.869-0.578,1.425-0.575h17.3
		c0.557-0.003,1.031,0.188,1.426,0.575c0.387,0.395,0.578,0.869,0.574,1.425c0.004,0.557-0.188,1.031-0.574,1.426
		c-0.395,0.387-0.869,0.578-1.426,0.574H746.3z M720.25,204.1c-0.556,0.004-1.031-0.188-1.425-0.574
		c-0.388-0.395-0.579-0.869-0.575-1.426c-0.004-0.556,0.188-1.03,0.575-1.425c0.394-0.387,0.869-0.578,1.425-0.575h17.1
		c0.557-0.003,1.031,0.188,1.426,0.575c0.387,0.395,0.578,0.869,0.574,1.425c0.004,0.557-0.188,1.031-0.574,1.426
		c-0.395,0.387-0.869,0.578-1.426,0.574H720.25z M839.15,183.95c0.556-0.004,1.03,0.188,1.425,0.575
		c0.387,0.394,0.578,0.868,0.575,1.425c0.003,0.556-0.188,1.03-0.575,1.425c-0.395,0.387-0.869,0.578-1.425,0.575h-9.2
		c-0.556,0.003-1.031-0.188-1.425-0.575c-0.388-0.395-0.579-0.869-0.575-1.425c-0.004-0.557,0.188-1.031,0.575-1.425
		c0.394-0.388,0.869-0.579,1.425-0.575H839.15z M804.275,184.525c0.394-0.388,0.869-0.579,1.425-0.575h16.149
		c0.557-0.004,1.031,0.188,1.426,0.575c0.387,0.394,0.578,0.868,0.574,1.425c0.004,0.556-0.188,1.03-0.574,1.425
		c-0.395,0.387-0.869,0.578-1.426,0.575H805.7c-0.556,0.003-1.031-0.188-1.425-0.575c-0.388-0.395-0.579-0.869-0.575-1.425
		C803.696,185.394,803.888,184.919,804.275,184.525z M633.7,238.375c0.482-0.277,0.991-0.344,1.524-0.2
		c0.527,0.142,0.928,0.45,1.2,0.925l5.55,9.601c0.182,0.311,0.273,0.644,0.275,1c-0.002,0.354-0.093,0.688-0.275,1l-5.55,9.6
		c-0.283,0.477-0.691,0.785-1.225,0.925c-0.528,0.144-1.028,0.077-1.5-0.199c-0.477-0.282-0.785-0.691-0.925-1.226
		c-0.143-0.527-0.076-1.027,0.199-1.5l4.976-8.6l-4.976-8.601c-0.275-0.482-0.343-0.991-0.199-1.524
		C632.916,239.047,633.225,238.647,633.7,238.375z" fill="#9BA8D5" clip-rule="evenodd" fill-rule="evenodd"></path>
	<g>
		<linearGradient y2="116.9507" x2="424.2749" y1="287.5" x1="424.2749" gradientUnits="userSpaceOnUse" id="SVGID_1_">
			<stop style="stop-color:#478CCB" offset="0"></stop>
			<stop style="stop-color:#6AABDE" offset="1"></stop>
		</linearGradient>
		<path d="M383,233.85h21.35v-14H383V233.85z M420.525,234.725
			c0.587-0.584,1.295-0.876,2.125-0.875h45.85c0.83-0.001,1.538,0.291,2.125,0.875c0.584,0.587,0.876,1.296,0.875,2.125
			c0.001,0.83-0.291,1.538-0.875,2.125c-0.587,0.585-1.295,0.877-2.125,0.875h-45.85c-0.83,0.002-1.538-0.29-2.125-0.875
			c-0.585-0.587-0.877-1.295-0.875-2.125C419.648,236.021,419.94,235.312,420.525,234.725z M422.425,188.825
			c0.587-0.585,1.296-0.876,2.125-0.875c0.83-0.001,1.538,0.29,2.125,0.875c0.585,0.587,0.876,1.295,0.875,2.125v2.95
			c0.001,0.829-0.29,1.537-0.875,2.125c-0.587,0.584-1.295,0.876-2.125,0.875c-0.829,0.001-1.538-0.291-2.125-0.875
			c-0.584-0.588-0.876-1.296-0.875-2.125v-2.95C421.549,190.12,421.841,189.412,422.425,188.825z M424.55,139.05
			c4.651,0.007,8.568,1.665,11.75,4.976l-0.05-0.075c3.376,3.297,5.06,7.247,5.05,11.85c-0.007,4.674-1.665,8.59-4.975,11.75
			c-0.041,0.043-0.082,0.085-0.125,0.125c-2.015,2.11-4.289,3.544-6.825,4.3h-0.025c-0.584,0.174-1.185,0.316-1.8,0.426v6.75
			c0.001,0.829-0.29,1.537-0.875,2.125c-0.587,0.584-1.295,0.876-2.125,0.875c-0.829,0.001-1.538-0.291-2.125-0.875
			c-0.584-0.588-0.876-1.296-0.875-2.125v-9.5c-0.001-0.83,0.291-1.538,0.875-2.125c0.587-0.585,1.296-0.877,2.125-0.875
			c1.099,0.003,2.133-0.139,3.101-0.426h-0.025c1.613-0.495,3.063-1.42,4.35-2.774c0.045-0.042,0.086-0.084,0.125-0.125
			c2.141-2.017,3.208-4.525,3.2-7.525c-0.009-2.931-1.093-5.447-3.25-7.55c-0.014-0.025-0.03-0.051-0.05-0.075
			c-2.018-2.09-4.501-3.131-7.45-3.125c-2.958,0.009-5.525,1.075-7.7,3.2l0.051-0.075c-2.039,2.123-3.056,4.664-3.051,7.625
			c0,0.667,0,1.283,0,1.851c0.002,0.829-0.29,1.537-0.875,2.125c-0.587,0.584-1.295,0.876-2.125,0.875
			c-0.829,0.001-1.538-0.291-2.125-0.875c-0.584-0.588-0.876-1.296-0.875-2.125c0-0.567,0-1.184,0-1.851
			c0.006-4.572,1.589-8.497,4.75-11.774c0.021-0.024,0.037-0.05,0.051-0.075C416.009,140.675,419.976,139.042,424.55,139.05z
			 M468.5,213.85c0.83-0.001,1.538,0.291,2.125,0.875c0.584,0.587,0.876,1.296,0.875,2.125c0.001,0.83-0.291,1.538-0.875,2.125
			c-0.587,0.585-1.295,0.877-2.125,0.875h-45.85c-0.83,0.002-1.538-0.29-2.125-0.875c-0.585-0.587-0.877-1.295-0.875-2.125
			c-0.002-0.829,0.29-1.538,0.875-2.125c0.587-0.584,1.295-0.876,2.125-0.875H468.5z M377,258.8
			c-0.001-0.829,0.29-1.538,0.875-2.125c0.587-0.584,1.295-0.876,2.125-0.875h88.5c0.83-0.001,1.538,0.291,2.125,0.875
			c0.584,0.587,0.876,1.296,0.875,2.125c0.001,0.83-0.291,1.538-0.875,2.125c-0.587,0.585-1.295,0.876-2.125,0.875H380
			c-0.83,0.001-1.538-0.29-2.125-0.875C377.29,260.338,376.999,259.63,377,258.8z M377,236.85v-20
			c-0.001-0.829,0.29-1.538,0.875-2.125c0.587-0.584,1.295-0.876,2.125-0.875h27.35c0.83-0.001,1.538,0.291,2.125,0.875
			c0.585,0.587,0.877,1.296,0.875,2.125v20c0.002,0.83-0.29,1.538-0.875,2.125c-0.587,0.585-1.295,0.877-2.125,0.875H380
			c-0.83,0.002-1.538-0.29-2.125-0.875C377.29,238.388,376.999,237.68,377,236.85z M355,140c-0.005-6.326,2.254-11.752,6.775-16.275
			c4.523-4.521,9.948-6.779,16.274-6.774h92.45c6.361-0.003,11.803,2.255,16.325,6.774v0.025c4.482,4.516,6.725,9.932,6.725,16.25
			v124.45c0,6.364-2.242,11.789-6.725,16.274c-4.522,4.52-9.964,6.778-16.325,6.775h-92.45c-6.326,0.004-11.751-2.254-16.274-6.775
			c-3.065-3.073-5.09-6.59-6.075-10.55c-0.465-1.794-0.698-3.702-0.7-5.725V140z M366.025,127.975
			c-3.346,3.343-5.021,7.352-5.025,12.025v124.45c-0.002,1.501,0.164,2.918,0.5,4.25v0.024c0.748,2.907,2.257,5.49,4.525,7.75
			c3.343,3.346,7.351,5.021,12.024,5.025h92.45c4.705-0.003,8.73-1.678,12.075-5.025c3.316-3.313,4.975-7.322,4.975-12.024V140
			c0-4.683-1.658-8.699-4.975-12.05v0.024c-3.345-3.347-7.37-5.021-12.075-5.024h-92.45
			C373.376,122.954,369.368,124.63,366.025,127.975z" fill="url(#SVGID_1_)" clip-rule="evenodd" fill-rule="evenodd"></path>
	</g>
</g>
</svg>
