<?xml version="1.0" standalone="no"?><!DOCTYPE svg PUBLIC "-//W3C//DTD SVG 1.1//EN" "http://www.w3.org/Graphics/SVG/1.1/DTD/svg11.dtd"><svg t="1655624956271" class="icon" viewBox="0 0 1024 1024" version="1.1" xmlns="http://www.w3.org/2000/svg" p-id="1003" xmlns:xlink="http://www.w3.org/1999/xlink" width="200" height="200"><defs><style type="text/css"></style></defs><path d="M512 512m-510.246575 0a510.246575 510.246575 0 1 0 1020.49315 0 510.246575 510.246575 0 1 0-1020.49315 0Z" fill="#FF922D" p-id="1004"></path><path d="M512 512m-490.958904 0a490.958904 490.958904 0 1 0 981.917808 0 490.958904 490.958904 0 1 0-981.917808 0Z" fill="#FFFFFF" p-id="1005"></path><path d="M483.994301 461.51189c12.649205 13.582027 28.005699 7.80274 32.175343-5.067397 4.173151-12.870137 34.837041-335.402082 17.41852-366.26937-17.418521-30.867288-95.435397-16.296329-134.129972-4.979726-38.698082 11.323616-113.934027 44.295014-102.193096 82.449535 11.737425 38.154521 174.08 280.281425 186.729205 293.866958zM530.828274 444.237151c0 12.554521 8.732055 27.633973 22.808548 18.421479 14.072986-9.212493 276.395836-208.503233 280.414685-233.521096 4.018849-25.010849-60.552767-87.41874-115.953973-115.690959-55.397699-28.268712-154.981699-65.486904-164.460712-21.384767-9.482521 44.102137-22.808548 339.617315-22.808548 352.175343zM561.271233 478.134356c-5.646027 9.966466-0.831123 28.924493 17.681534 33.865644 18.512658 4.941151 344.824986 15.696658 365.666192 0 20.841205-15.696658 5.937096-101.102466-12.607123-154.862466-18.544219-53.76-61.590795-130.861589-85.521535-119.786959-23.93074 11.081644-279.576548 230.820822-285.219068 240.783781z" fill="#FFCB31" p-id="1006"></path><path d="M559.044384 545.357151c6.922521 10.425863 244.287123 270.437699 279.713315 270.437698 35.429699 0 86.524493-124.612384 95.684383-167.438027 9.15989-42.825644 25.336986-112.710137 0-120.428712-25.340493-7.718575-349.219068-7.718575-362.30663-7.718576-13.091068 0-20.010082 14.721753-13.091068 25.147617zM534.58411 564.364274c0 11.807562-13.129644 354.549479 9.450958 381.664438 22.577096 27.118466 136.332274-17.685041 172.235398-33.416767 35.899616-15.731726 113.965589-65.949808 101.660055-84.648329-12.309041-18.702027-249.351014-257.416767-258.886137-267.418301-9.531616-10.005041-24.456767-7.985096-24.456768 3.822466z" fill="#FFCB31" p-id="1007"></path><path d="M493.788932 558.374575c8.146411-10.720438 25.319452-12.884164 30.59726 4.320439 5.274301 17.204603 13.045479 344.69874-9.363288 373.556602-22.408767 28.86137-83.192986 14.14663-136.931945-4.383561-53.735452-18.533699-104.188493-39.35737-104.188493-69.537315s211.743562-293.235726 219.886466-303.956165zM455.620384 512c23.036493 3.296438 37.761753 20.837699 30.169424 34.202301-7.592329 13.361096-184.916164 283.644493-228.239781 299.162302-43.32011 15.517808-119.822027-78.037918-151.864109-164.323945-32.042082-86.286027-50.074301-164.723726-17.593863-191.971946 32.480438-27.248219 344.495342 19.638356 367.528329 22.931288z" fill="#FFCB31" p-id="1008"></path><path d="M487.767671 480.964384c-7.644932-14.879562-190.120329-301.448767-208.419068-314.03485-18.295233-12.589589-96.452384 29.341808-142.788384 102.631452-46.336 73.293151-79.079452 159.438904-47.409096 187.532274 31.670356 28.09337 368.836384 44.105644 380.791233 44.105644 11.958356 0 25.46674-5.358466 17.821808-20.23452z" fill="#FFCB31" p-id="1009"></path><path d="M508.791233 527.54937c-4.344986 6.831342-9.117808 14.304438-9.598247 15.507288-0.462904 1.15726 4.653589-5.130521 9.738521-11.45337 5.084932-6.319342 16.50674-5.909041 17.050301 0 0.543562 5.909041 0.683836 9.994521 0.683836 11.747945 0 1.392219 0.234959-4.404603 0.526027-10.383781 0.284055-5.979178 11.45337-6.435068 17.232658-1.329096 5.779288 5.109479 9.759562 9.223014 10.639781 9.938411 1.364164 1.111671-10.450411-11.754959-16.966137-18.898411-6.52274-7.139945 0.077151-11.537534 5.695123-11.64274 5.617973-0.101699 12.140712 0.028055 13.606575 0.028055 1.613151 0-7.511671-0.259507-14.09052-1.045041-2.805479-0.333151-6.301808-12.032-1.59211-16.510246 4.709699-4.47474 10.176877-9.41589 11.337644-10.720439 2.009425-2.254904-9.184438 5.751233-13.725808 8.448-4.54137 2.700274-11.214904 1.392219-11.397261-4.141589-0.18937-5.533808-1.265973-11.958356-1.265972-13.532931 0-1.571068-2.244384 10.864219-2.837041 13.532931-0.589151 2.668712-4.429151 7.760658-8.605808 4.888548-4.173151-2.87211-9.012603-7.311781-9.959453-8.255123-0.704877-0.704877 4.569425 8.079781 7.764165 13.196274 1.055562 1.693808-3.822466 10.054137-5.856439 10.036603-6.733151-0.052603-16.054356-0.904767-19.249095-0.904768-3.050959 0 9.429918 1.21337 16.632986 2.924713 7.199562 1.711342 8.577753 11.737425 4.236274 18.568767z" fill="#FBF7E3" p-id="1010"></path></svg>