<svg xmlns="http://www.w3.org/2000/svg" xmlns:xlink="http://www.w3.org/1999/xlink" width="43" height="43" version="1.1" viewBox="0 0 43 43"><title>10</title><g id="卡片" fill="none" fill-rule="evenodd" stroke="none" stroke-width="1"><g id="Apple-TV" transform="translate(-1122.000000, -305.000000)"><g id="10" transform="translate(1123.464102, 306.183013)"><g id="1备份-2" transform="translate(20.500000, 20.500000) rotate(-330.000000) translate(-20.500000, -20.500000) translate(6.000000, 6.000000)"><path id="路径-17" fill="#414443" fill-rule="nonzero" d="M4.09738609,1.1357996 L4.57029118,1.62020404 L5.7944582,2.92571444 C5.86279839,2.99722799 5.92454992,3.06094448 5.9835073,3.12077317 L6.17177116,3.3071205 C6.22871191,3.3617559 6.27990367,3.40896246 6.32554113,3.4488948 L6.38985593,3.50335698 C6.42203382,3.5295734 6.44404922,3.54370898 6.40171575,3.54831455 L6.56766601,3.53103221 C6.76958352,3.50390785 7.12059835,3.44424406 7.77718394,3.33038055 C8.33247823,3.23920295 8.79697844,3.17629396 9.2474843,3.1374344 C9.55081704,3.11126965 9.83598605,3.09752568 10.1045801,3.09752568 C10.3764522,3.09752568 10.6650118,3.11160403 10.9723939,3.13840668 C11.3290092,3.1695023 11.693139,3.21540752 12.1100975,3.27912539 L12.4334298,3.33030059 C12.6016674,3.35775367 13.2259201,3.46402813 13.3606704,3.4856132 L13.6972928,3.53426865 L13.8958408,3.55002171 C13.8147861,3.55002171 13.8087549,3.54377889 13.828616,3.52394197 L13.8475989,3.50640053 C13.9246622,3.4361867 14.0216196,3.33413547 14.1385117,3.20030366 L14.2299191,3.09397182 C14.3144672,2.99419093 14.4061047,2.88256147 14.5115047,2.75116319 L15.5420647,1.43838964 L15.8703715,1.02991923 C16.7536052,-0.0519816726 17.2535502,-0.5 17.7768718,-0.5 C19.0535368,-0.5 20.6460022,4.41875048 20.6460022,7.19505136 C20.6460022,7.47119373 20.4221445,7.69505136 20.1460022,7.69505136 C19.8698598,7.69505136 19.6460022,7.47119373 19.6460022,7.19505136 C19.6460022,4.97733643 18.1964464,0.5 17.7768718,0.5 C17.6848495,0.5 17.1691402,1.01392092 16.4604447,1.89130799 L15.2893391,3.37964801 C15.1795432,3.51649234 15.0831458,3.63388772 14.9928603,3.74043981 C14.5019525,4.31979369 14.2492652,4.55002171 13.8958408,4.55002171 L13.7172441,4.5416696 C13.5842882,4.53046578 13.4199354,4.50785506 13.2025012,4.47302521 L12.2723796,4.3172468 L11.6730004,4.22569781 C11.3921412,4.18636903 11.1355766,4.15643007 10.885527,4.13462661 C10.6055237,4.11021129 10.3455106,4.09752568 10.1045801,4.09752568 C9.86656839,4.09752568 9.60965174,4.109908 9.3334228,4.13373485 C8.91250326,4.17004236 8.47141633,4.2297804 7.9392112,4.31716684 L6.98779284,4.47958801 C6.6751032,4.52903294 6.49025149,4.55002171 6.35705357,4.55002171 C6.06178368,4.55002171 5.83703806,4.38696098 5.39684282,3.94901388 L4.96196146,3.50131999 L3.95410045,2.4233496 L3.74495215,2.2043831 C2.91313358,1.34144528 2.30446118,0.848914914 2.13247849,0.848914914 C1.921863,0.848914914 1.25484409,2.8952877 0.637416848,6.53169374 C0.591192062,6.80393973 0.333020486,6.98716612 0.0607744932,6.94094133 C-0.211471499,6.89471655 -0.394697889,6.63654497 -0.348473103,6.36429898 L-0.169399462,5.34559957 C0.521298834,1.56228739 1.15680272,-0.151085086 2.13247849,-0.151085086 C2.65033202,-0.151085086 3.22085102,0.261273082 4.09738609,1.1357996 Z"/><path id="路径-18备份" fill="#414443" fill-rule="nonzero" d="M19.3278117,7.66455601 C19.5141906,7.4607976 19.8304595,7.44670879 20.0342179,7.63308776 C20.2379763,7.81946674 20.2520651,8.13573558 20.0656861,8.33949398 C16.4546181,12.2872862 14.9940276,16.4612752 15.6540615,20.8946431 C16.2957017,25.2044625 19.865492,27.4495962 26.5505813,27.6243625 C26.8266294,27.6315791 27.0445603,27.8612105 27.0373437,28.1372586 C27.030127,28.4133066 26.8004956,28.6312376 26.5244476,28.6241951 C19.4056266,28.4379157 15.3900821,25.9124356 14.6649631,21.0418988 C13.9582378,16.2949106 15.5224717,11.8247356 19.3278117,7.66455601 Z" transform="translate(20.768709, 18.063108) scale(-1, 1) translate(-20.768709, -18.063108)"/><g id="编组-22" fill="#414443" fill-rule="nonzero" transform="translate(26.500000, 20.349168) scale(-1, 1) translate(-26.500000, -20.349168) translate(24.000000, 17.849168)"><path id="直线-2备份-2" d="M0.532121855,0.000945854524 L0.621267813,0.0149287499 L4.62126781,1.01492875 C4.88916527,1.08190311 5.05204561,1.35337036 4.98507125,1.62126781 C4.92553848,1.85939888 4.70443109,2.01455347 4.46787814,1.99905415 L4.37873219,1.98507125 L0.378732187,0.98507125 C0.110834733,0.918096887 -0.0520456136,0.646629641 0.0149287499,0.378732187 C0.0744615175,0.140601117 0.295568908,-0.0145534734 0.532121855,0.000945854524 Z"/><path id="直线-2备份-3" d="M4.43798263,2.50386106 C4.7119926,2.46960982 4.96188769,2.66397266 4.99613894,2.93798263 C5.02658449,3.18154705 4.87639668,3.40605774 4.65019979,3.47699778 L4.56201737,3.49613894 L0.562017367,3.99613894 C0.288007398,4.03039018 0.0381123078,3.83602734 0.00386106164,3.56201737 C-0.0265844905,3.31845295 0.123603316,3.09394226 0.349800214,3.02300222 L0.437982633,3.00386106 L4.43798263,2.50386106 Z"/></g><path id="椭圆形备份-7" fill="#F6B2B1" d="M20,23.8491679 C21.1045695,23.8491679 22,22.9537374 22,21.8491679 C22,20.7445984 21.1045695,19.8491679 20,19.8491679 C18.8954305,19.8491679 18,20.7445984 18,21.8491679 C18,22.9537374 18.8954305,23.8491679 20,23.8491679 Z"/><path id="椭圆形备份-5" fill="#414443" d="M17.3672842,20.3491679 C17.9195689,20.3491679 18.3672842,19.9014527 18.3672842,19.3491679 C18.3672842,18.7968832 17.9195689,18.3491679 17.3672842,18.3491679 C16.8149994,18.3491679 16.3672842,18.7968832 16.3672842,19.3491679 C16.3672842,19.9014527 16.8149994,20.3491679 17.3672842,20.3491679 Z"/><path id="椭圆形备份-8" fill="#414443" d="M10,19.8491679 C10.5522847,19.8491679 10.8612143,19.6253103 10.8612143,19.3491679 C10.8612143,19.0730255 10.5522847,18.8491679 10,18.8491679 C9.44771525,18.8491679 9.1779681,19.0730255 9.1779681,19.3491679 C9.1779681,19.6253103 9.44771525,19.8491679 10,19.8491679 Z"/><path id="矩形" fill="#414443" fill-rule="nonzero" d="M9.18748387,19.4426755 C10.0795137,19.4426755 10.8026467,20.1658085 10.8026467,21.0578383 C10.8026467,21.1206767 10.7989796,21.1834615 10.791664,21.2458726 C10.7595161,21.5201373 10.5111195,21.7164116 10.2368548,21.6842636 C9.99306399,21.6556877 9.81089514,21.4562486 9.7960015,21.2196567 L9.80264669,21.0578383 C9.80264669,20.7489792 9.5750287,20.4932831 9.27838813,20.4493454 L9.18748387,20.4426755 L8.31777587,20.4426755 C8.04163349,20.4426755 7.81777587,20.2188178 7.81777587,19.9426755 C7.81777587,19.6972156 7.99465103,19.4930671 8.22790024,19.4507311 L8.31777587,19.4426755 L9.18748387,19.4426755 Z" transform="translate(9.310211, 20.565193) rotate(-270.000000) translate(-9.310211, -20.565193)"/><path id="矩形备份-11" fill="#414443" fill-rule="nonzero" d="M11.0634894,18.5651695 C12.1680589,18.5651695 13.0634894,19.4606 13.0634894,20.5651695 C13.0634894,21.6195313 12.2476117,22.4833346 11.2127518,22.5596838 L11.0634894,22.5651695 L10.4402699,22.5651695 C10.1641275,22.5651695 9.94026989,22.3413119 9.94026989,22.0651695 C9.94026989,21.8197096 10.117145,21.6155611 10.3503943,21.5732252 L10.4402699,21.5651695 L11.0634894,21.5651695 C11.6157742,21.5651695 12.0634894,21.1174542 12.0634894,20.5651695 C12.0634894,20.0523336 11.6774493,19.6296623 11.1801106,19.5718972 L11.0634894,19.5651695 L10.4402699,19.5651695 C10.1641275,19.5651695 9.94026989,19.3413119 9.94026989,19.0651695 C9.94026989,18.8197096 10.117145,18.6155611 10.3503943,18.5732252 L10.4402699,18.5651695 L11.0634894,18.5651695 Z" transform="translate(11.501880, 20.565169) rotate(-270.000000) translate(-11.501880, -20.565169)"/><path id="路径-19" fill="#F6B2B1" d="M2.3518734,3.12398547 C2.01118645,3.23881047 1.8014764,3.86621545 1.59417046,4.72736861 C1.38686453,5.58852177 1.21853883,6.4548101 1.51750998,6.58994847 C1.81648113,6.72508684 3.97599607,5.70416239 4.06648291,5.20182077 C4.15696974,4.69947916 2.69256036,3.00916047 2.3518734,3.12398547 Z"/><path id="路径-19备份" fill="#F6B2B1" d="M16.9963398,3.12398547 C16.6556528,3.23881047 16.4459428,3.86621545 16.2386368,4.72736861 C16.0313309,5.58852177 15.8630052,6.4548101 16.1619764,6.58994847 C16.4609475,6.72508684 18.6204624,5.70416239 18.7109493,5.20182077 C18.8014361,4.69947916 17.3370267,3.00916047 16.9963398,3.12398547 Z" transform="translate(17.357484, 4.860280) scale(-1, 1) translate(-17.357484, -4.860280)"/></g><rect id="矩形" width="1" height="33" x="11.536" y="6" fill="#414443"/><path id="路径-22" fill="#414443" d="M35.6588433,15.331353 L36.6582345,16.2326011 C36.8633062,16.4175341 36.8796318,16.7336954 36.6946987,16.938767 C36.6536262,16.9843122 36.604525,17.0219124 36.5498467,17.0496902 L33.4814064,18.6085256 C33.256587,18.7227388 32.9819026,18.6516658 32.8406923,18.4427445 L32.7574226,18.3195464 C32.6275991,18.1274719 32.6468366,17.8713488 32.8038951,17.700822 L34.9562139,15.3639367 C35.1419026,15.1623248 35.4552927,15.1477916 35.6588433,15.331353 Z"/><path id="路径-22备份-2" fill="#414443" d="M36.1818141,22.0069604 L37.1812054,22.9082085 C37.386277,23.0931415 37.4026026,23.4093028 37.2176696,23.6143745 C37.1765971,23.6599197 37.1274958,23.6975199 37.0728175,23.7252976 L34.0043773,25.284133 C33.7795578,25.3983462 33.5048734,25.3272732 33.3636632,25.1183519 L33.2803934,24.9951538 C33.1505699,24.8030793 33.1698074,24.5469562 33.326866,24.3764295 L35.4791848,22.0395441 C35.6648734,21.8379322 35.9782635,21.8233991 36.1818141,22.0069604 Z" transform="translate(35.390294, 23.579832) scale(1, -1) translate(-35.390294, -23.579832)"/><path id="路径-22备份" fill="#414443" d="M37.3654325,18.3951759 L38.7807113,19.4369241 C39.003103,19.6006206 39.0506849,19.9136069 38.8869884,20.1359986 C38.8329895,20.2093594 38.7599756,20.2665749 38.6758312,20.3014664 L34.545582,22.0141248 C34.3428286,22.098199 34.1089508,22.0402104 33.9689594,21.8711547 L33.8025955,21.6702512 C33.6306343,21.4625883 33.6542925,21.1559797 33.8560754,20.9771552 L36.7374097,18.4236521 C36.9138556,18.2672818 37.1755593,18.2554154 37.3654325,18.3951759 Z" transform="translate(36.494214, 20.155568) rotate(-330.000000) translate(-36.494214, -20.155568)"/><path id="路径-23" fill="#414443" fill-rule="nonzero" d="M17.1913268,34.2332786 L18.142538,34.5418192 C17.2532699,37.2833764 15.2813399,38.7259366 12.3250596,38.8134194 L12.0358984,38.8176533 L12.0358984,37.8176533 C14.6343258,37.8176533 16.2923284,36.7230085 17.1072369,34.4781977 L17.1913268,34.2332786 Z"/><path id="椭圆形备份-11" fill="#414443" fill-rule="nonzero" d="M13.279239,35.1044913 C14.1589142,35.1044913 15.2306356,35.8176089 15.2306356,36.6972841 C15.2306356,37.5769593 14.1589142,38.0500836 13.279239,38.0500836 C12.3995638,38.0500836 11.2306356,37.5769593 11.2306356,36.6972841 C11.2306356,35.8176089 12.3995638,35.1044913 13.279239,35.1044913 Z M13.279239,36.1044913 C12.8069577,36.1044913 12.2306356,36.5175244 12.2306356,36.6972841 C12.2306356,36.7775126 12.7109436,37.0500836 13.279239,37.0500836 C13.8224164,37.0500836 14.2306356,36.8035245 14.2306356,36.6972841 C14.2306356,36.4901596 13.7250128,36.1044913 13.279239,36.1044913 Z" transform="translate(13.230636, 36.577287) rotate(39.000000) translate(-13.230636, -36.577287)"/></g></g></g></svg>